<svg id="Layer_1" viewBox="0 0 64 64" xmlns="http://www.w3.org/2000/svg" data-name="Layer 1"><path d="m54.026 27.513-4.758-.659c-.354-1.191-.829-2.339-1.418-3.427l2.898-3.829c.301-.398.263-.958-.09-1.311l-4.945-4.945c-.353-.353-.912-.392-1.311-.09l-3.83 2.898c-1.088-.589-2.236-1.065-3.426-1.418l-.659-4.758c-.069-.495-.492-.863-.991-.863h-6.993c-.5 0-.922.368-.991.863l-.659 4.758c-1.191.354-2.339.829-3.427 1.418l-3.829-2.898c-.399-.302-.958-.263-1.311.09l-4.945 4.945c-.353.353-.392.913-.09 1.311l2.898 3.829c-.589 1.088-1.064 2.236-1.418 3.427l-4.758.659c-.495.069-.863.492-.863.991v6.993c0 .5.368.922.863.991l4.758.659c.354 1.191.829 2.339 1.418 3.427l-2.898 3.829c-.301.398-.263.958.09 1.311l4.945 4.945c.353.353.911.392 1.311.09l3.829-2.898c1.088.589 2.236 1.064 3.427 1.418l.659 4.758c.069.495.491.863.991.863h6.993c.499 0 .922-.368.991-.863l.659-4.758c1.19-.354 2.338-.829 3.426-1.418l3.83 2.898c.398.301.957.262 1.311-.09l4.945-4.945c.353-.353.392-.913.09-1.311l-2.898-3.829c.589-1.088 1.064-2.236 1.418-3.427l4.758-.659c.495-.069.863-.491.863-.991v-6.993c0-.499-.368-.922-.863-.991zm-1.137 7.112-4.546.629c-.402.056-.73.349-.832.742-.375 1.461-.953 2.855-1.716 4.146-.207.349-.182.789.063 1.113l2.769 3.659-3.713 3.713-3.659-2.769c-.325-.246-.764-.271-1.113-.063-1.29.764-2.685 1.341-4.145 1.716-.393.101-.687.43-.742.832l-.63 4.546h-5.25l-.629-4.546c-.056-.402-.349-.73-.742-.832-1.461-.375-2.855-.953-4.146-1.716-.35-.208-.789-.183-1.113.063l-3.659 2.769-3.713-3.713 2.769-3.659c.245-.324.27-.764.063-1.113-.763-1.29-1.341-2.685-1.716-4.146-.101-.393-.43-.687-.832-.742l-4.546-.629v-5.25l4.546-.63c.402-.056.73-.349.832-.742.375-1.461.953-2.855 1.716-4.146.207-.349.182-.789-.063-1.113l-2.769-3.659 3.713-3.713 3.659 2.769c.324.245.763.27 1.113.063 1.29-.763 2.685-1.341 4.146-1.716.393-.101.687-.43.742-.832l.629-4.546h5.25l.63 4.546c.056.402.349.73.742.832 1.46.375 2.855.952 4.146 1.716.349.206.789.181 1.113-.063l3.659-2.769 3.713 3.713-2.769 3.659c-.245.324-.27.764-.063 1.113.763 1.29 1.341 2.685 1.716 4.146.101.393.43.687.832.742l4.546.63v5.25z"/><path d="m32 21.087c-6.018 0-10.913 4.896-10.913 10.913s4.896 10.913 10.913 10.913 10.913-4.896 10.913-10.913-4.896-10.913-10.913-10.913zm0 19.826c-4.915 0-8.913-3.999-8.913-8.913s3.999-8.913 8.913-8.913 8.913 3.999 8.913 8.913-3.999 8.913-8.913 8.913z"/><path d="m53.444 2h-42.888c-4.718 0-8.556 3.838-8.556 8.556v42.888c0 4.718 3.838 8.556 8.556 8.556h42.888c4.718 0 8.556-3.838 8.556-8.556v-42.888c0-4.718-3.838-8.556-8.556-8.556zm6.556 51.444c0 3.615-2.941 6.556-6.556 6.556h-42.888c-3.615 0-6.556-2.941-6.556-6.556v-42.888c0-3.615 2.941-6.556 6.556-6.556h42.888c3.615 0 6.556 2.941 6.556 6.556z"/></svg>